<svg xmlns="http://www.w3.org/2000/svg" viewBox="0 0 100 100">
  <defs>
    <linearGradient id="grad" x1="0%" y1="0%" x2="100%" y2="100%">
      <stop offset="0%" style="stop-color:#7c3aed;stop-opacity:1" />
      <stop offset="100%" style="stop-color:#a855f7;stop-opacity:1" />
    </linearGradient>
  </defs>
  <!-- Genie lamp shape -->
  <path fill="url(#grad)" d="M50 10 C30 10 20 25 20 40 C20 50 25 55 30 58 L25 85 C25 90 30 95 50 95 C70 95 75 90 75 85 L70 58 C75 55 80 50 80 40 C80 25 70 10 50 10 Z"/>
  <!-- Sparkle -->
  <circle fill="#fcd34d" cx="65" cy="25" r="4"/>
  <circle fill="#fcd34d" cx="75" cy="18" r="2"/>
  <!-- Smoke/magic effect -->
  <path fill="none" stroke="#a855f7" stroke-width="2" stroke-linecap="round" d="M45 5 Q50 0 55 5 M40 2 Q45 -3 50 2"/>
</svg>
